<svg xmlns="http://www.w3.org/2000/svg" viewBox="0 0 554.8 216.2"><defs><style>.cls-1{fill:#010101;}</style></defs><g id="katman_2" data-name="katman 2"><g id="katman_1-2" data-name="katman 1"><path class="cls-1" d="M38.43,216.08c-11-.15-26.22-.75-27.87-1.12a9,9,0,0,1-6-4.44,16.22,16.22,0,0,1-1.88-6.38c0-1.43.23-2,.83-2a11.13,11.13,0,0,1,2.25,1.36c3.53,2.4,4.36,2.47,21.34,2.4,13.07,0,13.07,0,14.72-1.13a21,21,0,0,0,5.26-5,38.34,38.34,0,0,0,3.08-6.09c.6-1.65.83-1.35-2.33-3.15a28,28,0,0,1-6.16-5c-3.3-3.53-4.43-5.79-10.89-21-4.36-10.3-7.66-15.18-12.77-19.09-.91-.67-3.38-2.4-5.41-3.83C6,137.2,2.82,134.19,1.24,131.18s-1.65-5.33-.22-7.51c1.65-2.48,6.08-4.06,10.59-3.83,5.11.3,9.62,2.48,14.65,6.91,3.83,3.46,6,6.31,9.47,12.77a47.17,47.17,0,0,0,5.11,8c3.9,4.81,6.91,6.16,13.59,5.86,3.69-.15,9.7-.82,10-1.12a29.51,29.51,0,0,0,.3-3.76c.15-4.06.45-5.33,2.4-10.22s2.11-6.46.9-13.22c-.82-4.66-.82-7.51.08-10.07a17.3,17.3,0,0,1,7.44-9.39c1.87-1.13,1.87-1.13,1-1.65a10.84,10.84,0,0,1-3.23-3.38,10.44,10.44,0,0,1-1.12-5.94,12.82,12.82,0,0,1,.9-5c.75-2.25.75-2.25.15-2.55a7.72,7.72,0,0,1-2.63-2.93,15.83,15.83,0,0,1-.83-2.33c-.37-1.43-.37-1.5-2-2.63-3.08-2.33-4.51-2.63-3.91-1,.45,1.28,0,2.26-2,4.29-2.7,2.7-4.43,3.08-6.46,1.57-.83-.6-1-.67-1.73-.45A3.25,3.25,0,0,1,50.53,83a5.91,5.91,0,0,1-1.81-3.68A4.61,4.61,0,0,1,50,76.34a.9.9,0,0,0,.3-1.13,3.55,3.55,0,0,1,2.78-3.83,13.92,13.92,0,0,0,2-.9c2-1.2,3.76-.9,5,.9.31.45.68.9.83.9A14.58,14.58,0,0,0,63.6,70c5.56-5.26,9.77-7.44,16.08-8.57A85,85,0,0,1,92.6,60.41c1.88.08,2.18.08,3.23-.45,4-1.8,7.59.08,8,4.13.07,1.21.15,1.28,1,1.66a7.39,7.39,0,0,1,3,3.08,8.23,8.23,0,0,1,.3,5.26c-.6,2.93-.6,3.6.15,4.35s1.65,1,3.3,1.13a3.72,3.72,0,0,1,2.93,1.5,3.12,3.12,0,0,1-.9,4.14c-.67.52-.67.52.38.9,2.78,1,4,4,2.4,5.93a3.5,3.5,0,0,0-.52.75A14.4,14.4,0,0,0,118,94.15a21.63,21.63,0,0,1,5,3.68,11.13,11.13,0,0,1,2.48,6.61c0,1,0,1,1,1.5a7.93,7.93,0,0,1,2,1.35c1,.91,1.05.91,2,.75a20.7,20.7,0,0,0,3.38-.9c1.27-.37,2.85-.82,3.45-.9a4.8,4.8,0,0,1,5,2c.38.53.38.53,3.61-.15,8.26-1.73,12.24-.83,14,3.16,1.5,3.38,1.35,3.23,3.6,3.83,5.19,1.27,8.64,3.6,10.37,7.21,2,4,1.5,8.11-1.43,12.47-2.7,4.06-6.38,5.79-11.72,5.56-3.9-.15-6.46-1.28-6.31-2.63.08-.45.23-.52,1-.52a14.06,14.06,0,0,1,2.78.52c4.73,1.28,8.86-.52,10.89-4.81.68-1.35.68-1.65.68-3.68a6.88,6.88,0,0,0-.45-3.23c-1.35-2.85-3.76-4.51-7.44-5a8.72,8.72,0,0,0-8.11,3c-2.26,2.41-3.61,6-4.21,11.12-.23,2.18-.15,7.44.15,7.89s16.23.3,20.13-.15a172.42,172.42,0,0,0,31.48-5.94c6.24-1.72,6.24-1.72,6.24-3.3a15.66,15.66,0,0,1,.15-2.25c.15-.61.08-.68-1.43-1.36-2.7-1.27-4.88-3.9-3.6-4.35.3-.08.22-.23-.08-.68a2.45,2.45,0,0,1-.45-1.13c0-1,.83-1.2,3.68-.9,4.21.45,6.46,0,9-1.88a22.63,22.63,0,0,1,7.59-3.6,20.09,20.09,0,0,1,5.41-.6c3.83,0,6.46.37,12.47,2,6.16,1.58,7.66,1.8,12.39,1.73,4.89,0,7.74-.45,10.37-1.73,3.91-1.8,7.44-5.64,10.59-11.35a30.24,30.24,0,0,0,2.56-6.38c0-.23-.83-.9-2.25-1.73-4.14-2.48-5.34-4.06-5.79-7.89-.38-3.08,0-3.23,4.06-1.28,2.78,1.36,4,1.73,4,1.43,0-.45-2.1-2.55-3.38-3.3A6.38,6.38,0,0,0,269,86.93c-1.28,0-1.58.15-2.11,1-.6,1.13-1.2,1.66-1.88,1.51a1.48,1.48,0,0,1-1.2-1.58c0-.45-.07-.75-.22-.75s-1.2.3-2.41.67c-6.31,1.88-11.12,1.06-12.47-2.25-.45-1.13-.45-1.88.23-2.48s1.57-.67,3.6,0a25.3,25.3,0,0,0,5.71,1.2c.75,0,1.43-.45,1.21-.9a8.36,8.36,0,0,0-1.88-1.58c-3.31-2.32-5.34-5.25-5.49-7.88-.07-1,0-1.36.38-1.81,1.05-1.35,2.33-.52,4.88,3.23A31.68,31.68,0,0,0,260.14,79,10.35,10.35,0,0,0,263,81.22c.07,0-.15-.45-.53-1a8.29,8.29,0,0,1-1.65-4.36c-.23-2.33.45-3.68,1.88-3.68.82,0,2.25,1.65,3,3.45,1.13,2.71,3.16,5.79,3.53,5.34a5,5,0,0,0-.6-1.65c-1.88-3.69-1.8-5.79.08-5.79.82,0,2.4,1.73,3.38,3.68s.9,1.88,1.35,1.05c1-2,2.55-2.7,3.46-1.5.6.75.6,1.2-.08,3.16a6.14,6.14,0,0,0-.45,2.93A10.63,10.63,0,0,0,278.7,88a15.81,15.81,0,0,0,6.08,4.29c.61.15.76.07,1.58-.75,1-1,1-1,1-2.48a7.07,7.07,0,0,0-.23-2.11,17.67,17.67,0,0,0-2.55-2.63c-2.56-2.25-3.38-3.38-3.83-4.88-.38-1.2-.15-2,.52-2.4s1.51-.08,2.93,1.12a5.31,5.31,0,0,0,1.36,1c.22-.23-1.36-2.63-2.93-4.28-3.24-3.53-4.66-5.64-5.34-8s-.37-3.75.68-3.75c1.35,0,3.15,1.88,4.58,4.73,1.58,3.16,2.48,4.51,3.08,4.66,1.2.3,2.55-1.88,4.13-6.61.75-2.18,1-2.71,1.36-2.71s1.27,1.28,1.87,3.31c1,3.08.3,5.48-2.25,8.11a8.19,8.19,0,0,0-1.28,1.58,2,2,0,0,0,1.43,1.43c1.28,0,3.53-2.11,5.86-5.64,1-1.5,2.25-2.78,2.63-2.78a2.14,2.14,0,0,1,.6.3c.38.3.45.6.45,2.26a5.47,5.47,0,0,1-.6,3.15,13.69,13.69,0,0,1-4.36,5.19c-2.63,2-4.05,3.23-4.05,3.53s.52.3,2.25-.6c1.5-.75,2.18-.68,2.63.15.6,1.35-.83,3.45-3.31,4.58a6.58,6.58,0,0,0-1.42.83,6.08,6.08,0,0,0,1.12,1c1.88,1.28,2.18,2,2.71,7.14.45,4.51.9,5.33,4.2,8.11,2.41,2,2.41,4.66.08,5.86a3.51,3.51,0,0,1-4.06-.3c-2.33-1.42-2.78-1.65-4-1.57a3.91,3.91,0,0,0-4.06,2.78c-.22.82-.15,1.12.45,2.85.53,1.5,4.14,9.09,4.51,9.54.3.3,34.71-5.11,35.09-5.56.07-.07-.38-.3-1-.52-2-.83-3.38-2.18-2.85-2.78.22-.23.15-.45-.3-1-1.13-1.35-.53-1.95,2.4-2.18,4.81-.45,6.24-1,8.72-3.53a20.82,20.82,0,0,1,11-6c1.88-.45,2.63-.45,7.59-.38,12.1.23,14.13.15,16.76-.37,5-1,8.11-2.41,10.44-4.58,2.63-2.48,4.58-5.71,6.16-10.37,1.05-3.08,1.88-7.14,1.58-7.52a10.6,10.6,0,0,0-2.18-1c-4.73-1.81-6.09-3.08-7-6.91-.37-1.36-.37-1.51,0-1.81s.75-.37,4.74.75a7.78,7.78,0,0,0,2.63.45c.37-.15.3-.22-.38-.82a16.22,16.22,0,0,0-5.41-2.56c-1.73-.22-2.63.23-3.31,1.73-.37.9-.67,1.28-1.12,1.35-.68.15-1.66-.37-1.66-1,0-1-.3-1-2.32,0-5.94,2.93-10.22,3-12.18.15a2.06,2.06,0,0,1,0-2.71c.46-.45.61-.45,2.71-.3,3.08.23,6.31.15,6.76-.22.53-.53.08-.9-2.4-2.26a11.75,11.75,0,0,1-3.76-2.63c-1.5-1.57-2.25-3-2.25-4.2s.52-1.66,1.42-1.66,1.81.6,4.21,3.16A16.43,16.43,0,0,0,372,62.82c.53.15.45.07-.3-.83a8.17,8.17,0,0,1-2.25-4c-.45-1.73-.23-2.86.67-3.31,1.13-.52,2.33.23,3.83,2.48,1.73,2.56,3.76,4.66,4.14,4.28.07-.07-.3-.67-.76-1.27-1.87-2.48-2.47-4.36-1.65-5.11.6-.53,1.13-.45,2.33.3,1,.6,3,3,3,3.53s.37.07.6-.75c.37-1.43,1.05-2.18,1.95-2.18a1.7,1.7,0,0,1,1.2.45c.45.45.45.6.3,2-.3,2.4-.22,3.3.38,4.66A12.68,12.68,0,0,0,392.52,69c2,.67,2.63.6,3.31-.38s.67-1.8.22-3.53c-.37-1.28-.37-1.28-3.08-2.93-2.4-1.43-4-2.78-4.51-4s-.6-1.73,0-2.26,1.66-.37,3.16.53a7.1,7.1,0,0,0,1.2.6c.3-.3-1.73-2.25-3.68-3.68-4-2.93-6.31-5.79-6.76-8.34-.23-1.58,1.05-1.95,2.78-.9,1.13.75,2.18,1.8,4.36,4.58,1.65,2,2.1,2.41,2.85,2.18s2-3.91,2.4-7.44c.16-1.5.38-2.1.83-2.1.83,0,2.86,3.68,3.08,5.56A7.91,7.91,0,0,1,397,52.07a6,6,0,0,0-.9,1.66c0,.37,1.05,1.27,1.5,1.27a3.85,3.85,0,0,0,1.5-1.2,13.77,13.77,0,0,0,2.63-4.28c.83-1.65,1.65-3.23,1.81-3.46.6-.67,1.27-.45,1.72.38,1.36,2.78.08,6.76-3.23,10.44-1.95,2.1-2.93,3.53-2.7,3.76a4.49,4.49,0,0,0,1.65-.9c1.73-1.21,2.33-1.28,2.86-.45.75,1.2-.23,3.3-2.11,4.58-1.5,1-1.5,1.2-.3,1.73,2,.82,2.63,1.87,3.91,6.16a34.13,34.13,0,0,0,1.2,3.53c.53,1,1.73,2,3.91,3.3,2,1.21,2.55,1.88,2.4,3.46A2.81,2.81,0,0,1,411,84.68a4.48,4.48,0,0,1-3.83-.38,4.83,4.83,0,0,0-4.28-.22,3.69,3.69,0,0,0-2.33,3.3c0,.83,1.95,4.21,3.61,6.24a28.61,28.61,0,0,1,3.75,5.63c.6,1.36-.07,1.36,5.56.38,10.37-1.73,17-3.91,29.3-9.62l4.51-2.18c.08-.07-.07-.22-.3-.3a9.53,9.53,0,0,1-4-1.35c-1.13-.67-1.2-.75-1.2-1.5s-.08-.83-.38-.9a1.12,1.12,0,0,1-.6-1.58c.23-.45,1.05-.75,4.21-1.43a20.26,20.26,0,0,0,3.53-1.27,5.74,5.74,0,0,0,2.55-1.88,23.36,23.36,0,0,1,7.82-7.14c4-2.1,8.19-2.93,16.9-3.46,2-.15,4.43-.3,5.26-.45,5.48-.82,11.72-3.23,14.73-5.78,4.05-3.38,7-10.67,7.36-18.11.15-2.85.15-2.85-2.71-3.6-4-1-5.18-1.73-6.68-3.91a11.27,11.27,0,0,1-1.43-3.91c.07-.45,1-.67,2-.52,5,.82,6.31.9,5.71.22-.9-1.05-4.89-2.4-6.76-2.25-1.58.15-2.26.67-2.63,2s-.6,1.65-1.51,1.65c-.75,0-1.2-.38-1.57-1.28-.23-.52-.23-.52-2,.68-4.06,2.78-7.67,3.9-10.3,3.15-2.47-.67-3.83-3.23-2.4-4.35.53-.38.9-.46,2.78-.46,2.48,0,5.94-.45,6.46-.9.68-.52.38-1.05-.9-1.5-.68-.22-1.35-.45-1.43-.45a14.07,14.07,0,0,1-2-.83c-3.75-1.8-6.31-5.56-4.8-7.06.9-.9,2.25-.37,5.25,2.18a20.06,20.06,0,0,0,6.24,3.68c.53.15.38-.07-1-1.5a7.8,7.8,0,0,1-2.1-2.93c-.68-1.73-.6-2.78,0-3.38,1.13-1.05,2.18-.53,5.33,2.7,2.26,2.26,3.69,3.46,4.06,3.08.08-.07-.45-.67-1.13-1.42-1.5-1.58-2.55-3.24-2.55-4,0-1.65,1.43-1.88,3.46-.52a10.72,10.72,0,0,1,2.17,1.88c.83,1,.83,1,1.21-.38.6-2.1,1.8-2.78,2.93-1.65.52.52.52.67.52,2.55a6.41,6.41,0,0,0,.6,3.38c1.21,2.56,4.51,4.89,8,5.71,2.7.6,3.45.38,4-1.43.22-.67.15-1.05-.23-2.25a7.12,7.12,0,0,0-.9-1.88,25.79,25.79,0,0,0-3.08-1.58,15.89,15.89,0,0,1-3.6-2c-1.81-1.58-2.33-3.16-1.36-3.84.68-.45,1.43-.45,2.63.15,1.88.91,2,.91,1.81.46-.38-.68-2-1.88-4.29-3.23-4.58-2.63-7.06-5-7.81-7.67-.23-.75-.15-.9.23-1.28,1-1,3.23,0,6.91,3.54,2.93,2.78,3.53,3.08,4.2,2.1.61-.83,1-3.23,1.13-6.54.15-2.55.23-3.15.53-3.3s2.48,2,3.23,3.53c1.2,2.4,1.13,4.43-.3,7.36-.9,1.73-.9,1.73-.38,2.26a1.74,1.74,0,0,0,1.05.52c1.21,0,2.86-2.63,4-6.54.6-2,1.27-3.53,1.65-3.75,1-.6,2.18,1.58,2.18,4,0,2.93-.75,4.73-3.91,9.32-2,2.93-1.88,3.45.38,1.42,1.87-1.72,3.08-1.57,3.08.45,0,1.28-.45,2.11-2,3.69-1.2,1.2-1.35,1.72-.52,1.72a5.18,5.18,0,0,1,1.5.53c1.43.68,2.18,1.65,3.83,5.56s2,4.28,6.39,6.31a5.69,5.69,0,0,1,2.18,1.5,3.12,3.12,0,0,1,0,3.23c-1.21,1.73-2.63,2.11-5.11,1.36a12.16,12.16,0,0,0-2.18-.45,6.44,6.44,0,0,0-3.38,1.57,3.35,3.35,0,0,0-.68,3c.3,1,2.48,3.83,4.51,5.71,4.58,4.36,6.84,8.64,7.44,14,.37,3.45.07,5.56-1.5,10.06a43,43,0,0,0-2.26,8,13.13,13.13,0,0,0,.45,2c.45,1.43.45,1.43,2,1.88,2.25.68,3.38,1.65,6.08,5.18a14,14,0,0,0,2.18,2,115.65,115.65,0,0,1,9.09,9.17,5.8,5.8,0,0,0,4.51,2,5.5,5.5,0,0,1,4.13,1.65c1,1,1.28,1.8.83,2.7s-2.11,1.73-4,2.18c-2.47.6-4,.15-7.13-2.18-1.58-1.12-2-1.35-2.78-1.35s-.9,0-1.73-1.58c-1-1.8-2.7-3.6-7.81-7.81-5.49-4.66-6.62-5.26-9.77-5.78a10.29,10.29,0,0,1-4.81-1.81c-.68-.45-1.28-.75-1.43-.6s-.3,4,0,5.41c.08.53.3,2.33.38,4a37.58,37.58,0,0,0,.6,5.41c1.5,8.64,1.58,8.72,4.06,11.42,1.8,2,2,2.18,3.3,5.19a7.74,7.74,0,0,1,.75,2.63c-.07.82-.07.82-1.2.9a2.51,2.51,0,0,0-1.65.6c-.6.67-.68.67-4-1.13-2.78-1.5-3.53-2.25-3.53-3.6,0-.61-.15-.91-1.06-1.73-1.2-1.05-1-.08-1.2-8.49-.07-2.26-.07-2.33-1.2-4.74-1.58-3.38-1.73-3.9-1.58-7.28.15-5.64.15-6.24-.67-8.57-.68-2-.91-2.4-1.21-2-.37.67-7.36,2.33-13.14,3.23a33,33,0,0,1-7,.45c-1.73-.08-3.38-.15-3.53-.23s-1.13,1.06-4.06,5.41c-5.41,8.12-6.08,9.47-6.38,12.33-.38,3.45.45,6.91,2.77,12.39,1.58,3.76,2.48,5.11,3.91,6.24a38.11,38.11,0,0,1,6,5.63c1.2,2,.68,2.78-2.4,3.76s-4.06.68-6-2a5.25,5.25,0,0,0-2.11-1.81c-1.12-.52-1.35-.75-2.1-2.25a88.13,88.13,0,0,0-5.71-9.47,35.4,35.4,0,0,1-2.93-4.88c-.75-2.26-.3-4.28,2-9.09.91-2,1.06-2.41,1.06-3.76a6.3,6.3,0,0,0-.68-3.23,43.5,43.5,0,0,0-4.66,4.28c-5.63,5.64-11.42,12.78-12.77,15.71-.53,1.2-1.43,6.46-1.73,9.91s-.3,8.49,0,9.17c.15.37.9.9,2.25,1.58,2.11,1.12,4.51,3.08,4.74,3.83a1.31,1.31,0,0,1-.9,1.65c-.45.23-.75.53-.75.75a2,2,0,0,1-1.13,1.81c-.83.37-2,.15-4.06-.61-2.4-.9-2.63-1.05-3.08-1.8a13,13,0,0,1-.68-5c.16-1.13.16-1.13-1.12-2.48-1.81-2-2.18-2.93-2.18-5.71,0-3.61,1.13-11,2.7-17.58.68-2.71.68-2.71.23-3.46-1.2-1.88-.23-3.91,3.83-8.26,3.16-3.31,3.83-4.21,4.73-5.86,1.21-2.26.83-4.13-1.2-7a16.69,16.69,0,0,1-1.28-2.18c-.6-1.13-.6-1.13-1.27-.83-.38.16-2.71,1.21-5.11,2.33-12.1,5.56-19.16,7.82-30.43,9.62-2.78.45-3.08.53-3,.9s.15,1.58.15,3.08c.22,4.13-.23,5.86-3,11.57s-3,6.61-2.48,8.94c.23.9.38,1,1.58,1.58a10.55,10.55,0,0,1,4.43,4.43,24.46,24.46,0,0,0,2.41,3.23,103.43,103.43,0,0,1,7.13,9.17c1.58,2.4,2.48,3.08,4.59,3.38a5.63,5.63,0,0,1,3.75,1.88c1.05,1.13,1.28,1.95.9,2.7-.75,1.36-4.28,2.26-6.53,1.66-1.5-.38-2.48-1-4.43-2.86-1.21-1.13-1.66-1.43-2.18-1.43-.75,0-1.21-.45-1.58-1.65-.6-2-1.65-3.3-7.44-9.54-3.76-4.06-5-5-7.59-5.79a11,11,0,0,1-4.66-2.32c-1-.83-1.35-1-1.42-.76a11.68,11.68,0,0,0-.45,4.44c0,1.05-.08,3.15-.23,4.73a41,41,0,0,0,.08,8c.37,5.79.45,5.94,2.7,9,1.2,1.65,1.43,2.1,2.33,5,.83,2.78.53,3.61-1.2,3.38-.75-.07-1.05-.07-1.35.3a2,2,0,0,1-.61.46,30,30,0,0,1-5.63-4,3,3,0,0,1-.38-1.57,2.43,2.43,0,0,0-.82-2c-1-1.12-1.2-1.73-.83-2.85a7.75,7.75,0,0,0,.23-2,18.39,18.39,0,0,1,.3-3.15c.37-2.26.3-2.78-.6-5.41-1.13-3.16-1.13-4.58-.23-9.17a15.24,15.24,0,0,0,0-6.38,5.33,5.33,0,0,0-.45-1.66,10.35,10.35,0,0,0-1.95.38c-5,1.2-16.53,1.5-20.36.53a17.57,17.57,0,0,0-2-.38c-.52.3-8.86,10.29-9.91,11.87a11.68,11.68,0,0,0-2.11,7c-.15,2.4.3,5.11,1.58,9.46,1.05,3.46,2,5.49,3.38,6.69a31.18,31.18,0,0,1,4.66,5.49c.6,1.2.6,2.32-.08,2.78a10.1,10.1,0,0,1-4.5,1,2.54,2.54,0,0,1-2.26-.75,9.76,9.76,0,0,1-1.58-2.1,3.47,3.47,0,0,0-1.5-1.73c-1.2-.6-1.5-1.05-2.55-4-.53-1.51-2.11-5-3.46-7.67-2.48-5-2.48-5-2.48-7.06a5.67,5.67,0,0,1,.75-3.53,27.58,27.58,0,0,1,1.81-3.08c1.57-2.4,1.8-3.16,1.8-5a5.85,5.85,0,0,0-.23-2c-.22-.45-.67-.08-6.46,4.43-5,3.91-12.09,11-13,12.92-1.36,2.78-3.46,12-3.69,15.78-.15,2.48-.15,2.48,2,3.91,2.33,1.58,4.43,4,4.05,4.88-.07.23-.52.53-.9.68a1.81,1.81,0,0,0-1.05,1c-.75,1.73-1.8,1.88-4.66.45a16.54,16.54,0,0,1-2.78-1.65c-.52-.53-.52-.75-.52-2.86,0-1.2.07-2.7.07-3.3a1.64,1.64,0,0,0-.6-1.73A7.91,7.91,0,0,1,316,167c-.37-2.11,2-11.57,4.89-19.09.9-2.4,1-2.55.67-3.15-1.12-2.11.23-4.06,5.49-8.27,2.55-2,4.2-3.75,5-5.41s.67-2.85-.76-5.71a22.14,22.14,0,0,1-1.35-3.38c-.15-.6-.37-1.12-.6-1.12s-2.7.45-5.63,1C316.71,123.07,305,125,299,125.85c-2.63.38-5,.75-5.18.75-.45.08-.45.23-.45,3.68a17.58,17.58,0,0,1-.53,5.56c-.75,3-2.1,5.49-5.11,9.47-3.6,4.81-4,5.71-4,8,0,1.51.07,1.81.37,2a10.46,10.46,0,0,1,4.66,6.08,14.36,14.36,0,0,0,1.8,3.53c1.06,1.58,4.74,8.57,6.24,11.95a5.72,5.72,0,0,0,3.68,3.53c3.16,1.05,5.26,4.28,3.76,5.86-.75.75-2.18,1-4.21,1-2.93-.15-4.36-1.13-7.06-4.81-.83-1-1.2-1.43-1.65-1.5-.83-.08-1.21-.76-1.36-2.33a9,9,0,0,0-.9-2.78,136.28,136.28,0,0,0-7.66-12.17,10.07,10.07,0,0,0-4.51-3.69,11.28,11.28,0,0,1-4.28-3.53c-.83-1-.83-1-1.35.23a19,19,0,0,0-1.28,5,19.85,19.85,0,0,1-.75,3,52.07,52.07,0,0,0-1.73,9.76c-.6,4.81-.53,5,1.13,8.64a11.52,11.52,0,0,1,1.35,4.59c.52,4.58.22,5.18-2,4.43-.6-.22-.75-.15-1.13.15a.89.89,0,0,1-.82.23,18.28,18.28,0,0,1-2.71-2.48c-2.48-2.56-2.78-3.08-2.33-4.51.23-.75.15-.9-.45-1.88-.82-1.28-.9-2.25-.3-3.23a5.26,5.26,0,0,0,.53-1.73,22.68,22.68,0,0,1,1-3.45c.83-2.41.83-2.41.45-4.89-.67-4.35-.52-5.26,1.43-10.37a13.35,13.35,0,0,0,1.28-5.71c.07-2.62.07-2.62-3.76-2.7a57.26,57.26,0,0,1-11.42-1.13,28.1,28.1,0,0,1-8.41-2.4c-1.65-.75-1.65-.75-6.91,3.53-6.31,5.11-8.57,7.29-9.39,8.94-1.88,3.83-2.26,7.14-1.73,13.22.45,5.19,1,6.84,2.63,9,.3.45,1.2,1.8,1.95,3.08,2,3.46,2.33,5.41.83,5.93a15.88,15.88,0,0,1-5.71-.07c-1-.45-1.73-1.5-2.33-3.23a4.92,4.92,0,0,0-1.58-2.48,3.07,3.07,0,0,1-1.28-2.18c-.15-.6-.45-2.33-.67-3.83-.53-2.63-1.06-4.66-2.48-9.47-1.66-5.26-1.13-7.06,3.53-12.09,2-2.26,2.78-3.68,2.93-5.79a4.49,4.49,0,0,0,0-1.5c-.23,0-6.76,3.31-9.39,4.73-4.14,2.26-11.72,7.44-13.53,9.24-1.57,1.58-5.93,11-7.36,15.71-.83,3-.83,3.08,1.28,5.33,1.88,1.95,3.23,4.13,3.23,5.18,0,.61-.53,1-1.43,1-.45,0-.67.23-1.05.75-.53.9-1,1.2-1.8,1.2s-1.66-.45-3.76-2.17c-2.25-1.73-2.48-2.26-2.1-4.44a24.78,24.78,0,0,1,.67-2.7c.6-1.65.53-2.11-.22-3.46-1-1.88-1.13-3.6-.23-6.23A126.87,126.87,0,0,1,192.82,160c2-3.38,2-3.38,1.73-4.36a2.24,2.24,0,0,1,.3-2c.6-1.2,2.63-2.85,5.56-4.28a35.2,35.2,0,0,0,6.69-4.36,5,5,0,0,0,1.88-4.88,9,9,0,0,0-.3-1.2c-.15-.15-3.08.6-10.07,2.48-11.8,3.15-18.41,4.43-27.05,5.41-5.63.6-15.62,1.2-18.7,1-2.18-.08-2.56-.08-2.56.22,0,.76,2.33,12.48,3.31,16.61,1.72,7.36,1.87,8.41,1.87,14.35,0,4.73-.07,5.33-.52,6.91a19.1,19.1,0,0,1-4.51,7.81c-.83.9-.9,1-.6,1.51.45.75,3.46,3.6,3.91,3.6s1.12-.52,4.35-3.08c9.7-7.81,12.4-12.92,13.9-26.22a73.53,73.53,0,0,0,.45-15.48c-.37-4.65-.3-5.71.23-5.71s1,1,1.65,3.69a55.85,55.85,0,0,1,1.88,14.65,107.41,107.41,0,0,1-.68,15.62,49.42,49.42,0,0,1-4.35,12.93c-4.36,8.71-13.38,15.25-25.17,18.33-6.31,1.65-10.67,2-26.82,2.18C102,216.23,49,216.31,38.43,216.08Zm85.35-9.92,7.06-.82c7.06-.9,6.61-.75,7.06-2.48a9.18,9.18,0,0,0,.3-2.33c-.07-1-.07-1-.82-1-.45,0-4.13.15-8.19.23-7.59.15-16.83-.08-26.22-.68-2.86-.15-10.22-.6-16.45-1s-12.63-.83-14.35-1c-6.47-.68-5.71-.75-6.39.53-1,2.17-3,7.66-3,8.64,0,.37,2.78.37,31.11.37C116.87,206.54,120.7,206.47,123.78,206.16Z"/></g></g></svg>